<?xml version="1.0" encoding="utf-8"?>
<!-- Generator: Adobe Illustrator 23.0.6, SVG Export Plug-In . SVG Version: 6.00 Build 0)  -->
<svg version="1.1"
	 id="Layer_1" xmlns:dc="http://purl.org/dc/elements/1.1/" xmlns:mapsvg="http://mapsvg.com" xmlns:rdf="http://www.w3.org/1999/02/22-rdf-syntax-ns#" xmlns:svg="http://www.w3.org/2000/svg"
	 xmlns="http://www.w3.org/2000/svg" xmlns:xlink="http://www.w3.org/1999/xlink" x="0px" y="0px" viewBox="0 0 701.4 988.4"
	 style="enable-background:new 0 0 701.4 988.4;" xml:space="preserve">
<path id="NZ-AUK" d="M363.6,117l1-0.1l-0.7,0.8l0.4,1.4l-0.5,1.1l-1.7-1.9l0.9-0.1L363,117L363.6,117L363.6,117z M362.9,112.8
	l0.9,0.1l0.4,0.7l-0.4,0.7l-0.5-0.3l-1,0.7l0.5,1.5l-0.9,1.5h-0.7l-0.5,0l-0.6-0.3l-1-0.2l-0.5-0.4l0.4-0.5l-1.4,0l0.4-0.6l-1.1-0.8
	l-1.1,1l0-2l1.1-0.2l0.1,0.8l1.7-0.9l0.3,1l1.2,0l0.2-1.1l1.6,0.1L362.9,112.8L362.9,112.8z M353,111.8l0.8,0.6l-0.2,2.1l-0.6,0.7
	l-0.4-0.6l-0.5,0.8l-2,0.1l-0.5-0.8l0.4-0.9l2-0.1l1-1L353,111.8L353,111.8z M350.1,95.5l1.5,1.2l-0.2,1.9l-0.4-0.7l-1.2,0.4
	l0.2-0.4l-0.9-0.6L350.1,95.5z M359.9,84.8l0.9,0.6l-0.6,2.4l-1.9-0.6l0-1.7L359.9,84.8z M342.1,83.6l3.3,4.8l4,1.5l0,0.7l-1,0.6
	l0.2,0.8l-0.6,0l-0.2,0l0.4,1.4l0.6-0.2l1.3,1.1l1.1-0.2l-0.8,0.7l-1-0.2l-1.2,0.7l-1.8,0.3l-0.5-0.5l0.1,1.7l0.7,0.7l1.2-0.1
	l-0.1,0.4l-1.2,1.4l-0.8,0.9l0.2-2l-0.7-0.4l-0.5,1l-0.5,0.8l1.2,0.7l0.1,2.4l-0.9-0.3l0.4,1.1l-0.6,0l-0.1,0.6l1.6,2.3l1.3,0.2
	l0.3-1l2.5-0.7l-0.2,1.3l-2.4,0.2l-0.5,0.8l-1.2,0.2l1.4,2.4l-0.5,0.9l1,3.5l1.5,2l-1.3-0.1l0.5-0.4l-1.1-0.9l-1,0.9l-1.7,0.3
	l-1.4-2.5l0.5-1.1l-1.2,1.2l0,0.6l0.1,0.9l0.4,0.4l-0.1,1.8l1.4,1.4l0.5-1.5l0.9,0.1l0.6-0.9l1.7,0.3l0.2,1l0.6,0.1l0.4-0.9l2.2,0
	l0.5,1.2l-1.1,1.8l1.8-1.6l0.4-0.1l1.9,1.9l1.2-0.2l-0.3-1.3l2.1-0.3l1.2,1.5l0.4,0.4l0.9,1.6l1.5-0.9l0.7,1.1l1.2-1l2.2,1.3
	l1.4,2.2l0,0l-0.5,1.1l-2.6,0.7l-1.3-1.1l-0.8,0.3l-0.1,1.9l-2.7-0.3l-0.5-0.9l-1.7,2.2l-0.8,2.7l-1.3-0.1l-0.8-0.8l-0.5,0.7l0.3,1
	l0.4-0.4l0.9,1l1,2l-0.7,1.3l-2.3-0.2l0.5,0.9l-0.6,0.5l-0.1,1.4l-2.6-0.6l-0.1,1.4l-1.6,1l0,0l-1.9,1l-0.2-0.4l-0.5,0.5l0.1,1.2
	l-0.6,0.6l-1.6-1.5l-5.8-13.3l0-1.3l1-0.4l1.7,0.3l0.8-0.6l1.2,0.4l0.2,1.2l-0.6,0.8l0.8,1l-0.3,1.6l1.1,0.4l0.7,4.2l1.1,0.2
	l-1.3-3.9l0.9,0.4l0.8,0.2l1.7-0.3l-3.4-0.6l-0.6-0.7l2-0.6l1.4-1.8l0.7,0.1l-0.1,0.9l2.4-2.6l1,0.6l0.7-0.4l0.2,0.8l1.1-0.9
	l-0.9-0.7l-0.7,0.7l-0.6-0.2l-0.6-0.2l-1.6-2l-2,0.4l0.3-0.5l-1.2-0.8l1.3-1.2l-0.7-1.4l1.3-0.3l1.1,0.7l0.4-0.7l-1.5-0.3l-0.7-0.2
	l-1.6,0.7l-0.9-0.6l-1,0.4L342,124l-0.5-0.3l-0.6,1.4l0.3,0.9l-1.5-0.5l-0.2-0.6l-0.4,1.1l-1.8,1.3l-1,0.1l-0.7-4.9l-1.5-3.4
	l-0.5-3.4l-5-8.7l-4.9-7.1l0.3-1.7l1.3-0.7l1.3-0.3l2.6,4.8l2.9,1.8l-0.5,1.8l0.4,0.2l1,1l1.3-0.7l0.2-0.7l-1.2-0.6l0.4-1l0.9-0.4
	l-1.5-3.8l0.9-2.8l-1.4-1.3l-0.3,0.7l-1,0.3l-1.2-1.3l-0.4,0.5l-1.4-0.1l-1.1-0.7l0.6-3.1l0.6-0.4l2.3,1.1l2-0.8l0.2-1l0,0l2.1-1.8
	l0.5,0.4l0.4-1.4l2-0.8l0.1-1.3l2-0.8l0.1-1.3l1.3-1l0,0L342.1,83.6L342.1,83.6z M371.8,79.2l0.6,0.4l-0.4,1.5l0.6-0.4l0.1,1
	l0.8,0.1l-0.8,0.5l0.1,1.1l0.3,0.1L376,85l-0.9,0.9l0.1,1.6l-0.7,0.3l0.8,1.6l0.7,0l1.3,1.4l0.3,1.1l-1.1,1.7l-2-0.9L375,92l0.6,0.2
	l-0.2-1l-1.1,0.6l-1.1-0.2l0.2-2.3l-1.5,0.4l-0.3-0.8l-0.5,0.1l-1.9-1.6l-0.5,0.7l-0.4-1.1l0-1.3l0.7,0.1l0.4,0.9l0.8,0l-0.5-1
	l0.2-0.8l-0.5-0.5l0.6-0.4l-1.8-0.6l0.2-0.7l0.5,0.5l1.8-0.7l-1.4-1.2l0.1-1.2L371.8,79.2L371.8,79.2z"/>
<path id="NZ-BOP" d="M394.8,148.1l0.9,0.5l2.9,4.2l3,3.2l-0.4,0.4l-2.6-2.4l-0.3,1.2l-1.7-0.9l-0.1-1.5l1.6,0.5l-3.4-3.9
	L394.8,148.1z M404.5,228.3l1-0.9l0.9-0.1l0-1.4l-0.7-1.1l0.8-1.1l-0.9-1.3l-0.2-2.6l-1.1-0.1l-0.3,0.9l-1.5-0.2l0,0l-2-2.5l0,0
	l-0.8-1.6l0.7,0l-1-1l0,0l-0.5-1.2l0,0l0.5-0.2l0.3-2l4,1.1l1.6-1.4l-3.3-3.9l1.3-2.4l0-1.4l0.5-0.2l-3.2-1.4l-0.8,0.3l-0.5-1.2
	l-2.1,0.3l-0.3-0.9l0.6-0.5l-0.2-1.3l1.1,0.1l2.3-2.8l0.6,1.9l0.8,0.2l0.1,1.1l2,0l1.9-1l0-0.5l1.2-0.2l0.7,1.1l-0.9,2l2.3,1
	l1.2-2.9l3.5,1.3l-0.3-0.9l1.3-5.6l-1.6-1.8l-2.2-0.5l-1.4-1.6l-1.2,0.2l-1.5-0.8l-0.1-1.1l-0.4-0.6l-0.5,0.2l-1.1-3.1l0.5-0.2
	l-1.1-3.6l0.5-0.7l-0.6-0.9l-0.5,0.2l0.1-0.8l-1.9-1.4l-2.6-0.1l-1.9-1.4l-0.2-1.3l-1.4-1.1l-1.7-0.1l-0.1-1l-0.8-0.2l-0.5-1.7
	l1.4-0.8l-0.7-0.5l0.2-0.6l-0.9-0.4l0.2-0.6l-0.7-1.1l0.5-0.2l-1.3-0.6l0.8-2.7l-0.9-2.8l-2.5-3.8l0.2-1.7l-1.3-2.4l1-0.9l-1-2
	l1-1.4l1,1.5l1.6,0l-0.6-1.4l-0.5,0.2l-0.4-0.6l0.9-1.1l0.5,0.3l0.7-0.8l-0.5-1.2l0.6,0l0.3-0.9l-0.5-0.3l1-0.4l0,0l0,1.2l2,3.2
	l-0.5,0.1l-0.3-0.9l-1,0.5l-0.5,1.7l0.8,0l0-0.6l1.1,1.4l-2.3,1l1.3,1l-0.9,0.3l-0.2,0.9l0.8-0.5l0.4,1.1l0.7-0.9l0.3,0.9l-0.8,0.4
	l1.2,0.6l-0.4,0.6l0.4,0.8l1-0.8l0.8,0.7l0.7-0.6l-0.7,1.6l2.2,0.2l0.1,1.1l1.6-1.3l0.7,0.5l-0.1,1.3l0.6-1.3l0.3,1l-0.9,1.3
	l0.3,0.6l1-1l1.8,0.2l0.2-0.7l-0.9-0.5l-1.4-1l0-1.4l-0.6-0.4l0.3-0.3l3.2,2.9l6.8,3.9l0.9-0.2l0.6-1l0.6,1.1l7,4.7l3.4,1.4l7.2,1.7
	l3.2,1l0.7,1.3l4.2,1.1L437,173l0,0.8l1.5,0.2l0.4,0.8l0.7,0.1l0.9-0.6l-0.1-1l9.1-0.1l3.7-1.7l0-0.7l2.4-1.4l0.3-1.2l1.2-1l0.1-1.3
	l1-1.3l1.4-1.2l1.4-1.4l-0.6-1l1.5-0.8l0.8-2.2l2.2-0.2l1.2-0.9l1.4,0.1l1.3-1.1l0.8-1.7l0.4,0.8l1.5-0.1l1.5-2l-0.3-1.9l1,0.8
	l1.1-0.6l1.7,0.1l0,0l1,2.6l-2.6,0l-2.4,0.7l-0.2,0.6l1,3.3l-0.6,0.5l0.3,0.9l-0.7,0.8l0.9,1.2l1.6-1.5l1.4,1.5l-4,4.1l-4.2,13
	l-0.5,0.2l-4.9-4.4l-0.9,0.1l-0.5-0.6l-0.8,0.3l1.2,2.2l-1,0.9l0.6,0.3l0.1,1L460,180l0,0l-0.4,1.2l0,0l0.5,0.6l-2.2,0.6l-0.1,0.8
	l-1.8,1.1l-2.5,0.6l0.3,0.4l-0.6,0.5l0.7,1l-1.4,3.5l-8.9,4.6l0.7,4.3h-0.7l-0.6,1l-1-0.4l-0.6,1.9l-0.8,0.3l0.3,0.4l-1.7,0.4l0,0
	l-0.8,1.7l-0.9,0.1l0-0.5L436,205l-0.9,1.5l0.3,0.4l-1.5,2l-2.4-0.1l-1.4-1.6l-1.1,0.7l-0.5-0.3l-1,0.9l-1.1-0.6l-0.8,0.3l-0.4,1.2
	l-0.6,0l0.2,0.7l-1.3,0l-0.4,3.1l0.4,0.1l-0.7,0.8l0.3,2.3l-4.1,4.3l0.7,3l-6.4,0.1l-1.2,2.9l1.1,3.1l-1.2-0.3l-1.8,0.7l1,1.5
	l-2.2,0.6L404.5,228.3L404.5,228.3z"/>
<path id="NZ-CAN" d="M267.8,382l0.4,1.6l-0.3,1l0.6,0.9l1.1,0.2l0.9-0.6l0.6,0.4l0.1,1.1l1.1-0.4l0.3,0.5l-0.8,0.9l0.1,1.7l0.5,0.7
	l1.1,0.2l0,0.6l-0.8,1.8l1,1l1.6-0.6l0.6,0.9l-0.3,1l1.1,0.7l-0.3,1l1.3,1l1.4,0.1l-0.5,0.2l-1,2.4l0,0l1.1,0.2l0,0l0.8-0.3l0.9,0.8
	l-0.3,1l0.7,0.6l0.8-0.3l0.2-1.2l3.2-0.7l0.3-1.6l1.3-0.5l1-1.5l-0.1-1.1l0.9-0.1l-2.6-0.5l0.2-0.7l0.9-0.1l0.1-0.9l3.6-2.5
	l-0.2-0.8l1.7-0.4l0.2-0.7l0,0.6l0.7,0l0.1-0.9l2.1-0.8l0.6,0.4l0.2-0.7l1-0.4l-0.2-0.8l0.9-0.1l-0.9-2.8l0.9-0.6l-0.1-1.1l1-1
	l1.4,0l0.9-2.1l1.3-0.5l0.1-0.9l1.5,0.3l0.7-1.4l2.2-1.2l-0.2-0.8l0.8-1.8l1.1,0.1l1.1,2.2l1.1-1.3l5.3-1l0.8,1.1l3.2-0.2l-0.4,1.9
	l0,0l-4.4,6.3l-0.6,2l0.5,2.3l-1.8,1.1l-3.2,4l-1.6,0.9l-0.6,0.8l0,1.1l-2.2,2.1l-0.3,2.4l1.5,1l-1.3,0.6l-0.7-1.2l-2.1,0.4l-3.5,3
	l-1.1,3.5l0.8,0.5L297,408l-4.3,10.9l-2.1,2.8l0.2,1.8l-3,3.7l-4,1.9l-2.3,3.3L280,432l-1.9,1.4l-4.2,1.4l-1.7,1.8l-1,0l-1.6,2.4
	l-2,4.6l-0.6,6.9l0.3,4.1l1.3,4.6l-0.2,0.3l-0.7-1.9l-1,1.5l1.3,0.1l0.3,0.6l1.2,0.2l0.1,0.8l1.2,0.2l-3.3,1.2l-1.8-0.1l-1.1,0.8
	l0.3,1.8l0.4,0.4l0.5-1.5l0.2,1l0.6-0.2l0.5-1.5l1-0.1l0.4,0.8l0.9-1.2l0.2,0.4l1.8-1l-0.6,2.9l0.4,0.3l1.5-3.3l0.9,0.9l0.4-0.2
	l0.8,0.5l-1,2.6l0.3,0.8l1.5-3.5l0.6,0.9l0.6-0.3l0.6-0.1l0.6,0.4l-0.1,1l0.1,0.8l1.1-1.2l1-0.1l-0.5,0.5l1.2,0.9l-0.3,0.8l0.8,0.4
	l0.4-0.8l0.9,0.9l-0.5,1.1l0.8,0.4l0.4,1.1l0,1.6l-0.6,1.2l-0.6,0.4l0.2,1.5l-0.8,0.1l-0.2,0.9l-0.8-0.8l-0.7,1.9l-2.7,0.8l0-0.7
	l-1.1-1.1l0.2-1.8l1-1l-0.8-0.1l-0.3-0.7l0.9-0.2l-0.1-1l-0.8-0.1l-0.3-0.7l-0.9,0.7l0.4,2.4l-0.6,0.8l0.2,1.8l1.3,1.4l0,0.9
	l-1.4-0.5l-0.9,0.5l-1-0.6l-1.3,0.1l-0.5-0.5l-0.4-0.9l-0.8,0.3l-0.9-0.9l-0.7-1.1l-1.4-0.3l-15.4,2.2l-12.1,5.5l-14,8.1l-7.9,5.6
	l-4.2,3.9l-3.3,4.5l0.7,0.7l-0.2,3l-2.3,4.2l-1.3,4.1l0.4,12.6l-1,5.9l0,0l-1.2-0.5l-1.5,0.3l-2.3-1l-0.8,0.3l-0.9-0.9l-1.6,0.1
	l-1.6-0.9l-1.2,0.2l-0.1-0.6l-2.7-0.5l-7.6-3.5l-1.8,2l-0.5,2.4l-0.4-0.1l-0.6,1.2l-2.1,0.8l-0.8,0.9l-0.6-0.4l-1.5,0.9l-0.9-0.9
	l0-1.6l-1.1-0.2l-0.8,0.9l-1.5,0.3l-0.3-0.5l-1.3,1.1l-4.9,0.3l-0.2-0.8l-0.9-0.3l0.6-0.6l-0.5-1.3l-1.6-0.9l-1.3-2.6l0.2-1.3
	l-2.1-8.1l-2-0.5l-2.1,1.4l-2.9-1.3l-1.2-4.5l-0.7,0.6l0,1.5l-3-0.4l0.8-3l-0.9-1.5l0.7-1.5l-0.2-0.8l-2-0.5l-0.8,0.3l-1.3-1
	l0.7-0.5l-0.5-0.7l0.9-1.2l-0.6-1l0.7-0.5l-0.2-0.8l0.7-0.5l-0.3-0.5l0,0l-0.4-1.1l0,0l0.5-0.2l0.1-3.1l-1.6-2.4l0.8-0.3l0.3-1.6
	l1.5-0.9l-0.3-0.5l0.9-0.6l-0.2-0.8l1-0.1l-0.1-1.2l0.8-0.3l-0.2-0.8l0.8-0.3l0.3-1.6l1.2-0.2l-0.6-4l0,0l0.8-0.3l0.7-1.5l0.7,0
	l0.4-2l2.6-1.6l0.8-1.8l1.4,0.1l-0.1-1.2l1.6-0.6l0.2-0.7l1.1,0.2l-0.1-1.2l0.6-0.5l-0.5-0.7l1.2-0.2l1-1l0-2.1l2.2-1.2l0.4-1.4
	l-0.5-2.2l2-0.5l0.4-1.4l0,0l1.2-0.2l0,0l1.7-2.5l1.6,0l2.2-1.7l0.9,1.4l1.9-0.7l1-1.6l1.2-0.2l0.4-1.4l1.9-0.7l0.5-0.8l0.5,0.7
	l1.2-0.2l0.2,0.8l1.2-0.2l0.1-0.9l1.7-1.5l-0.6-0.9l1-1l1.8-0.4l-0.5-1.3l2.1,0.1l1.6-1.2l0.3,0.5l0.8-0.3l0.1-0.9l1.8-0.4l0-1.5
	l0.8-0.3l1.4-2l0.9,0.3l-0.1,0.9l1.5-0.3l1.3-1.7l0.1-0.9l1.4-0.5l-0.6-0.9l1.2-0.8l-0.2-0.8l0.8-0.3l-0.3-0.5l1,0.5l0.6-0.5
	l-0.2-0.8l0.8-0.3l0.3,0.5l1.6-1.2l0.6,0.4l1.1-0.4l-0.1-1.1l0.9-0.6l0,0l-0.4-1.6l0,0l3-2l-0.4-0.1l0.2-0.7l1.4,0.1l0.9-0.6
	l1.3,0.4l-0.2,0.7l0.5-0.2l1.3-1.1l-0.3-0.5l0.5-0.8l0.9,0.3l1-1l0.9,0.8l2.8-0.8l1,0.5l2-1.1l1.1,1.1l0.8-0.3l1.4-1.4l-0.7-0.6
	l0.2-0.7l1.1-0.4l-0.1-2.6l2.2-0.3l1.2-0.8l0.3-1l1.2-0.2l-0.1-1.7l1.3-1.1l0.3-1.6l2.1-0.8l-0.2-0.8l0,0l1.8-0.4l0,0l0.6,0.4l2.7-1
	l-0.3-0.5l0.5-0.2l-0.3-0.5l0.8-1.8l2.2-1.2l0-1.5l1.9-1.6l0.2-1.2l2-0.5l2.4-3l2.1-0.8l0.6,0.4l1.2-0.7l0.1-2.4l0.7,0l-0.1-1.1
	l0.9-1.2l-0.3-0.5l0,0l1.8-0.4l1.5-2.3l1.9-0.7l0.5-0.8l-0.3-1.9l1.3-1.1l-0.4-1.6l1.9-0.7l0.2,0.8L267.8,382L267.8,382z"/>
<path id="NZ-GIS" d="M480,150.9l5.7,1.2l-1,1.1l0.3,0.8l0.7,0.3l0.9,0.9l1.2,0.6l4.2,0.3l2.2,1.7l0.5,0.9l-4,6.3l0.3,0.7l-1.8,1.5
	l-0.8,2.6l0.1,2.1l-2.2,2.4l0,1.3l1.4,0.6l-0.4,0.9l0.4,1.2l-0.6,0.8l-1.4,0.5l-0.2,1.1l1.5,1.8l-0.7,0.7l0,1.4l-1,0.8l1,1.2l0,1.1
	l-0.2,1l0,2.5l0.4,1.3l0.3,1.9l-1.4,0.9l-1.1,1.9l0.4,2.8l-3.4,2.7l-0.2,1l-1.6,1.3l-0.5,1.1l-0.8-0.1l-1.8,1.4l-0.5,1.5l-2.2-1.9
	l-1.6,0.6l-1.2,1.4l-0.2,1.9l1.5,0.4l-1.7,1.6l-0.6,1.9l0.3,1.8l-0.7,1.2l0.3,0.9l-0.5,3.3l0,0l-2.1-0.7l-0.5-0.6l0.6-1l-0.5-0.6
	l-0.6,0.5l-0.7-0.5l0.1-0.8l-1,0.9l-1-0.9l-0.8,1.1l-0.4-0.9L462,219l-2.2-0.2l0.3-2.8l-0.7,0.8l-1-0.9l-0.8,0.3l-0.3-2.3l-1.1-0.1
	l-0.9,0.6l-1.1-2l-0.8,0.3l-1-1.5l0.5-0.7l-0.4-1.5l-1.5-0.2l0-0.5l-0.8,0.3l1.5-3l-2.2-0.7l-1.6,0.1l-1.8-1.2l0.1,2.9l-7.1-3.6l0,0
	l1.7-0.4l-0.3-0.4l0.8-0.3l0.7-1.9l1,0.4l0.6-1l0.7,0l-0.7-4.3l8.9-4.6l1.4-3.5l-0.7-1l0.6-0.5l-0.3-0.4l2.5-0.6l1.8-1.1l0.1-0.8
	l2.2-0.6l-0.5-0.6l0,0l0.4-1.2l0,0l1.3-0.5l-0.1-1l-0.6-0.3l1-0.9l-1.2-2.2l0.8-0.3l0.5,0.6l0.9-0.1l4.9,4.4l0.5-0.2l4.2-13l4-4.1
	l-1.4-1.5l-1.6,1.5l-0.9-1.2l0.7-0.8l-0.3-0.9l0.6-0.5l-1-3.3l0.2-0.6l2.4-0.7l2.6,0l-1-2.6l0,0l3.3,0.4L480,150.9L480,150.9z"/>
<path id="NZ-HKB" d="M419.6,295.6l-1.3-0.1l-1-1l-0.5,0.8l-2.1-1.1l-0.2,0.6l-1.9-0.4l-0.4-1l-1.7-0.5l0.2-0.6l-1-0.5l1.5-1.2
	l-0.9-0.8l0.5-1.6l-0.9-0.8l0.3-1l-1-2.9l0.8-1.7l-1.3-0.9l-0.5-1.2l-0.8-0.2l0.5-1.6l-1-0.4l0-0.5l-1.3,0l0,0l0.2-0.6l0,0l-1.2-1.2
	l-1.1-0.1l0-0.5l-2.2-0.2l-0.7,0.9l-1.6-1.9l1.2-2.1l-0.7-0.5l0.5-0.8l-0.3-0.4l0.9-1.2L400,268l2.2-7.2l-0.2-1.3l0.5-0.2l0-1.4
	l0.9-0.6l-1.6-1.3l0.6-1.9l-1.6-1.3l1.7-0.4l0.9-2l1.2-0.2l0.5-0.7l2.1-0.8l0.8,0.2l-0.8-3.5l0.5-0.7l-0.4-0.1l1-0.9l-0.5-0.6l0.7,0
	l0-0.5l-1.3-0.9l-1.3,0l-0.2-0.7l0.5-0.2l0-1.4l1.1-0.7l-0.4-2l-1.8-1.2l-1.6,0.1l-1.1-2.6v-1.9l0,0l0.1-0.8l2.2-1.1l-0.3-0.4l0,0
	l4.2,3.8l2.2-0.6l-1-1.5l1.8-0.7l1.2,0.3l-1.1-3.1l1.2-2.9l6.4-0.1l-0.7-3l4.1-4.3l-0.3-2.3l0.7-0.8l-0.4-0.1l0.4-3.1l1.3,0
	l-0.2-0.7l0.6,0l0.4-1.2l0.8-0.3l1.1,0.6l1-0.9l0.5,0.3l1.1-0.7l1.4,1.6l2.4,0.1l1.5-2l-0.3-0.4l0.9-1.5l1.5-0.6l0,0.5l0.9-0.1
	l0.8-1.7l0,0l7.1,3.6l-0.1-2.9l1.8,1.2l1.6-0.1l2.2,0.7l-1.5,3l0.8-0.3l0,0.5l1.5,0.2l0.4,1.5l-0.5,0.7l1,1.5l0.8-0.3l1.1,2l0.9-0.6
	l1.1,0.1l0.3,2.3l0.8-0.3l1,0.9l0.7-0.8l-0.3,2.8l2.2,0.2l0.4-0.4l0.4,0.9l0.9-1.1l1,0.9l1-0.9l-0.1,0.8l0.7,0.5l0.6-0.5l0.5,0.6
	l-0.6,1l0.5,0.6l2.1,0.7l0,0l-0.5,2.3l0.6,2.7l0.6,0.7l1.2,0.5l0.5-0.3l1.7,1.1l-3,3l-0.7,3.1L468,237l-0.8-4.1l-0.8-1.3l0.6-0.3
	l1.4-3.5l-1.2-1.2l-0.7,0.9l-3-1.1l-3.1-0.3l-10,0.6l-8.4,3.1l-4.3,2.2l-1.8,1.6l-0.9,3.2l-3,3.6L431,241l-1.2,2.5l-0.4,2.7l0.6,1.4
	l1.4-0.4l0,4l1.8,3.7l2.4,1.3l1.9-0.8l0.7,0.5l-3.1,4.4l-0.9,3.4l0.5,2.1l-2.9,4.7l-1.7,4.6l-0.3,1.5l0.6,1.1l-0.9,1.2l0,1.5l-1,0.6
	l-2.3,4.1l-0.3-0.4l-1.6,0.6l-2.4,1.9l-0.2,2.9L419.6,295.6L419.6,295.6z"/>
<path id="NZ-MBH" d="M332.2,329.4l0.5,0.3l-0.1,1.3l-1,4.4l-0.9-0.6l-0.7,1l-0.6-0.5l-1,0.4l-1.1,1.4h-0.8l-0.1-0.8l-0.7,0.8
	l-1.9,0.3l1.2-1.7l1.4,0.3l0.9-0.7l0.4-0.3l-0.6-0.2l0.3-0.6l1.2,0l0.1-0.8l1.2-0.3l-0.3,0.9l1.1,0l-0.3-0.4l1.2-0.6l0.4-1.5l-1.1,1
	l-0.6,0l-1.6-0.3l0.7-0.8l1.1,0.1l1-0.6L332.2,329.4L332.2,329.4z M320.5,321.8l0.2,1.5l-1.1,1.3l-0.4-0.9l1-1.1l-1-0.3L320.5,321.8
	L320.5,321.8z M317.1,320.3l1.1,0l-0.4,1.3l-0.7,0.6l-0.4-1.8l-0.6,0l-0.5,0.5l0.6,0.1l-0.3,0.6l-0.6,0.4l0.2,1.1l-0.4,0.3l-0.8-0.5
	l-1,0.8l0.1,0.6l1-0.3l-0.4,0.7l-1.1,0.6l-0.5-0.3l-0.6,1l-1.8-0.1l0.4-1.6l-0.9,1.3l-0.7-0.4l-0.5,0.7l1.5,0.6l-1.6,1.1l0.7,0.2
	l-0.3,1.5l-0.3,0.4l0,0.6l0.5,0.3l-0.2-0.6l0.5-0.3l0.6,0l0.8-2l1.1,0.5l0.4-0.5l0.6,0.5l1.1-0.4l1.5,0.4l-1.7,0.4l-0.2,0.8
	l-1.3-0.3l-0.4,1l1.1,0.2l-0.2,1.1l-1.5-0.4l0.3,0.9l-0.8,0.2l0.2,0.5l-2.3,0.5l0.3,1.1l2.4-1.1l-0.8,1.1l1.1-0.2l0.3,1.2l-0.9,1.4
	l0.2,1.2l-1.1,0.5l-1.1-0.8l0.4,0.9l-1.7,0.5l0.5,1.1l0.3-1.1l1.1,1.2l1.4,0.2l0.3-0.5l-0.9,0.3l-0.7-1.1l2.3-0.5l2.3-1.6l-1.8,0.3
	l-0.9-0.1l0.1-0.4l3.3-1l0,0.6l0.9,0.3l1.7-1l0.7,0.1l-0.5-0.8l2.1,0.4l1.9-1.2l-2.7,0.4l-0.5-0.2l0.2-0.8l-2.2,1.2l-0.6,0.6l-0.1-1
	l-1.5,1.3l-1.2-0.1l-1,0.6l0.3-1.6l0.6-0.5l-0.7-0.1l-0.4-1.4l2.1-0.8l-0.8-0.2l0.3-0.6l0.9,0.2l0.1-1.6l0.4,0.3l1.2-0.6l-1,1.9
	l0.6,1.9l0.3-1.2l0.8,0.4l0-1.7l0.6-0.4l1,1l0.3-0.3l-1-2l0.2-0.6l0.9-0.1l0.1-1.7l-0.6,0.3l-1-0.5l-0.7,1l-1.1,0.4l-1.2-0.3
	l0.8-0.5l-0.7-0.6l2-0.2l-0.9-1.2l0.3-0.4l1,0.5l-0.1-1.3l0.8-0.2l0.3,0.6l-0.4,0.5l0.4,1.5l0.5-0.3l0.4,0.4l0.8-1.1l0,0.9l0.7,0.2
	l0.9,1.8l-0.4-3l1.8,1.3l0-1.2l0.8-0.7l0.7,1.4l2-1.3l-0.5,1.2l-0.8,0.2l0.1,1.5l-0.4,0.1l-0.2-0.7l-0.6,0.7l2,1.4l0.9-1.6l0.7,0.1
	l0.4-0.7l1.1,0.3l-1,0.5l0,1.3l-1.5,1.2l0.6,0.7l-0.1,0.9l-0.9-0.6l-0.6,0.4l0,0.8l-0.9,0.3l0.4-0.8l-0.5,0l-0.1-1.8l-0.6,1.4
	l-0.7-0.4l0.1,0.9l0.7,0.5l-0.2,0.7l1.5,0.2l-0.6,1l0.6-0.1l0.1,0.6l-1.3,0.9l0.1-0.9l-0.7-0.6l0.1,2.1l-1.2-0.5l0-0.6l-0.5,0.6
	l0.3,0.8l-0.6,0.1l-0.4-1l-0.7,1.4l-0.5-0.4l0.3-0.9l-0.6,0.5l-0.3-0.3l-0.6,0.1l-0.6,0.8l-0.6-0.5l0,1.4l-1-0.9l0.1,1.4l-2.3,0.6
	l-0.3,0.7l4.1-1l0,1.4l1-1.6l1.1-0.1l0.7-0.3l2.5-0.8l-0.5,1.3l0.6-0.5l0.3,0.7l0.7-0.6l1,1.4l0.3-0.5l-1-0.7l0.5-0.4l0.5,0.6
	l1.4-0.5l1.1,0l0-0.6l1.4-0.9l-0.9,1.1l0.3,0.8l-0.8,0.4l0.3,0.6l-1,0l-1.2,1.2l0.8,0.9l-0.3,0.6l-0.9,0.3l-0.5-0.7l-0.4,1.4
	l-1.5,0.1l0.2,0.6l-1,0.1l-0.2-0.5l0.8-0.5l-0.3-0.5l0.8,0.1l1.2-1.8l-1.1-0.3l0.1,0.6l-1,0.8l0.4-1.5l-1.3,0.7l-0.3,1.8l-1.6,2.9
	l-0.6,0.1l-0.8,2.5l0.1,2l2.2,2.6l-1.2,0.4l0,0.8l1.2,0.4l1.4-0.6l1,0.5l0.7,2.4l-0.3,3.3l0.8,2.1l1.2,1l0.4-0.3l1.4,0.6l0.7-0.4
	l-0.1,1L326,366l-0.1,1l-2,3.2l-4.4,4.9l0,0l0.4-1.9l-3.2,0.2l-0.8-1.1l-5.3,1l-1.1,1.3l-1.1-2.2l-1.1-0.1l-0.8,1.8l0.2,0.8
	l-2.2,1.2l-0.7,1.4l-1.5-0.3l-0.1,0.9l-1.3,0.5l-0.9,2.1l-1.4,0l-1,1l0.1,1.1l-0.9,0.6l0.9,2.8l-0.9,0.1l0.2,0.8l-1,0.4l-0.2,0.7
	l-0.6-0.4l-2.1,0.8l-0.1,0.9l-0.7,0l0-0.6l-0.2,0.7l-1.7,0.4l0.2,0.8l-3.6,2.5l-0.1,0.9l-0.9,0.1l-0.2,0.7l2.6,0.5l-0.9,0.1l0.1,1.1
	l-1,1.5l-1.3,0.5l-0.3,1.6l-3.2,0.7l-0.2,1.2l-0.8,0.3l-0.7-0.6l0.3-1l-0.9-0.8l-0.8,0.3l0,0l-1.1-0.2l0,0l1-2.4l0.5-0.2l-1.4,0
	l-1.3-1l0.3-1l-1.1-0.7l0.3-1l-0.6-0.9l-1.6,0.6l-1-1l0.8-1.8l0-0.6l-1.1-0.2l-0.5-0.7l-0.1-1.7l0.8-0.9l-0.3-0.5l-1.1,0.4l-0.1-1.1
	l-0.6-0.4l-0.9,0.6l-1.1-0.2l-0.6-0.9l0.3-1l-0.4-1.6l0,0l0,0l0,0l0.5-0.2l-0.4-1l0.5-2.2l1-0.1l1-1l-0.4-1l1.2-0.7l0.3-1.5l1.3-0.5
	l0.1-0.9l0.5-0.2l0.2-0.7l-1-1l0.3-1l0.8-0.3l-0.1-1.1l2.9-3.1l-0.8-1.7l0.4-0.4l0.7,0.6l2.1-1.4l2.2-3.1l0-2l2.6-1l0.1-0.9l0.7,0
	l0.7-1.4l0,0l0-0.6l0,0l0.3-1.5l0.6,0.4l1.6-0.6l1,0.5l2-0.5l-0.5-1.2l-1.6-1.4l1-1.5l0.8-0.3l-0.4-1.6l2.1-0.8l0.8-1.8l2.3-1.5
	l-0.1-1.7l2.1-2.3l0.4-1.3l1.2-0.2l0.3-1l2-0.5l0.5-2.2l-0.4-1l0.9-3.5l0,0l1.2,1.1l-0.8,1.2l1.2-0.7l0.2,1.1l0.5,0.1l0.4-0.5
	l-0.5-1.2l2.3-0.5l0-0.5l1.5-0.6l-0.9,0.1l0.2-0.7l-2.2,1.2l-0.7-1.1l1.1-1.1l0.7-0.5l0.3,0.5l0.4-0.9l0.5,0.5l0.7-1.6l0.5,0.8
	l0.7-0.3l-0.4-0.9l0.9,0.1l-0.1-0.8l1-0.4l0.2-1.1l0.8,0.3l-0.9,2.7l1.1,0.3l0.9-1.6l0.6,0.2l0.8-0.9l-0.4-0.8l1-0.1l1.8-1.9
	L317.1,320.3L317.1,320.3z M315.6,309.1l0.4,0.8l-0.3,2.9l-0.7,0.5l0.1,1.1l-1.6,3.3l-1.3,0.6l-1.5,2.5l-2.3,1.1l0.9-2.6l-1.1,0.4
	l0.4-3.3l0.5,1.2l1.5,0.6l0.5-0.3l-1.3-0.7l-0.3-1.9l1.3-2.1l-0.4-0.8l1.3-0.6l0.5-0.9l0.5,0.5l-0.9,1.6l0.5,0.4l-0.3,1.6l1-1.5
	l1.3,0.3l0.2-0.8l-1.9,0l2-1.5l0.1-0.6l0.5,0.1L315.6,309.1L315.6,309.1z"/>
<path id="NZ-MWT" d="M418.3,295.5L418.3,295.5L418.3,295.5l1.3,0.1l0,0l0.4,1.3l-0.4,1.9l-2.3,0.3l-3.2,2.3l-0.4,1.7l-2.1,1.6
	l-1.5,3.2l-2.6,2.5l-1.7,3.3l0,0l-0.2-0.8l0.5-0.8l-1-0.5l-0.6-1.8l-2.3-0.5l-0.8-1.1l-0.8,0.3l-1.7-0.5l-0.1,1.7l-0.4-0.1l0.3,0.4
	l-1.6,0.1l-1.1-0.7l-0.6,1.1l-1.1-0.1l0.2,0.8l-1.2,0.2l-0.4,1.3l-0.9-0.8l-1.5,1.2l-0.9-0.8l-0.4,0.4l-0.6-0.3l-0.7,0.9l-1.7-0.5
	l1-2.4l-0.6-0.3l0.4-0.4l-0.7-0.5l-0.4,0.4l-0.7-0.5l-1.9,0.2l0,0l-0.3,1l0,0l0,0.5l-0.8-0.2l-0.3,1l-1.3,0.5l-5.8-3l-1.3,2.5
	l-1.8-0.1l-0.9-0.8l-0.8,0.3l-0.2,1.2l-1.5-0.2l-1.7,0.9l-1.1-0.7l-0.6,0.5l-1.2-0.4l-0.2-0.8l0.9-0.1l0-0.5l-1.4-0.6l-0.1-0.5
	l-1.3-0.1l0,0l1.1-2.2l2.2-9.4l0.3-8.9l-1.2-6.9l-1.9-4l-4.6-6l-5.1-4.4l-3.9-1.3l-0.8,0.2l0,0l-0.7-0.4l1.7-2.4l1.5-0.2l0.4-0.9
	l1.4-0.8l0-0.5l1.7-0.4l-0.3-0.4l0.6-0.5l-0.6-0.9l0.5-0.7l-0.3-0.4l2.6-1l-1-1l0.5-0.2l-0.5-2.3l1.1-2.7l-1.1-1.2l-0.4-2.1
	l-0.9,0.1l-1.9-2.3l0.2-0.6l-1-1.5l0.7,0l0-0.5l0,0l0.3-1l0,0l-1.5-1.3l-1.1-0.1l-0.3-1l1.8-2.6l0-1.4l1,0.4l0.5-0.7l0.8,0.2
	l-0.3-0.4l1.6-2l-0.5-0.3l0.8-0.3l-0.5-0.3l1.7-0.4l-0.6-0.9l0.9-0.1l-0.3-0.4l0.7,0l-0.3-0.4l0.7-0.8l2.1,0.3l-1.3-1.4l0.2-0.6
	L355,227l0.1-0.9l0,0l0.5-0.2l0,0l-0.9-2.4l-0.9,0.1l-0.2,0.6l-0.5-1.2l-1.2,0.2l-0.3-0.4l0.5-0.7l-0.5-0.3l0.5-0.7l-0.6-0.9
	l0.5-1.3l0,0l-0.8-0.8l0,0l-1.3,1l-1-1.5l-0.3-1.5l0.4-0.4l-0.7-1.1l0.9-0.1l0.3-1.5l1.8-0.7l0,0l1.5-1.1l1.6-0.1l-0.3-1l0.8-1.7
	l0.4,0.1l-0.5-1.7l2,0.1l1.5-0.6l1.1-1.2l1,0.4l0.7-0.8l1,0.4l1.4-0.3l1.1,0.7l1.3-0.5l0.2-0.6l0.9-0.1l0.7-1.4l1,0.4l-0.2-1.3
	l0.9-1.1l0.5,1.7l1.5-0.6l0.2-0.6l1.4-0.3l1.1,0.7l2.1-0.3l1.5,1.8l2.7-0.8l1-0.9l-0.4,2.3l-2,1.9l0.3,1l-0.5,1.2l-2,3.2l0.9,1.8
	l0.5-0.2l1,1.5l-1.5,2.2l1.6,2.4l-1.2,2.1l0.4,1.5l2.6-0.5l2.1,0.3l-1.5,1.7l0,1.4l-1.3,0.5l0.5,0.3l-0.5,1.3l1.4,1.1l-0.8,2.8
	l-2.9,5.8l4.3,1l1.4-0.3l1.6,0.5l0.2-0.6l2.2,0.8l1.2-1.6l1.2-0.2l-0.6-0.9l1.5-1.1l0.2-0.6l-0.5-0.3l3.1-1.2l0.3-1.5l4.4,0.2
	l2.4-1.2l1.4,0.6l0,0v1.9l1.1,2.6l1.6-0.1l1.8,1.2l0.4,2l-1.1,0.7l0,1.4l-0.5,0.2l0.2,0.8l1.3,0l1.2,0.9l0,0.5l-0.7,0l0.5,0.6
	l-1,0.9l0.4,0.1l-0.5,0.7l0.8,3.5l-0.8-0.2l-2.1,0.8l-0.5,0.7l-1.2,0.2l-0.9,2l-1.7,0.4l1.6,1.3l-0.6,1.9l1.6,1.3l-0.9,0.6l0,1.4
	l-0.5,0.2l0.2,1.3l-2.2,7.2l0.6,0.3l-0.9,1.2l0.3,0.4l-0.5,0.8l0.7,0.5l-1.2,2.1l1.6,1.8l0.7-0.9l2.2,0.2l0,0.5l1.1,0.1l1.2,1.2l0,0
	l-0.2,0.6l0,0l1.3,0l0,0.5l1,0.4l-0.5,1.6l0.8,0.2l0.5,1.2l1.3,0.9l-0.6,0.5l-0.2,1.2l1.1,2.9l-0.3,1l0.9,0.8l-0.5,1.6l0.9,0.8
	l-1.5,1.2l1,0.4l-0.2,0.6l1.7,0.5l0.4,1l1.9,0.4l0.2-0.6l2.1,1.1l0.5-0.7L418.3,295.5z"/>
<path id="NZ-NSN" d="M290.5,337.7l-1.3,0.9l-0.1-0.5l-2.8,2.2l0.6,0.3l-0.7,1.2l0,0l1.1,1l3-1.7l-0.6-2l0.4-0.7l0.7,0.5l0.8-1.1
	l-0.8-1.3L290.5,337.7z"/>
<path id="NZ-NTL" d="M278.8,0.3l1.6,1.1L278.7,2l0,3.8l-1.6,0.6l0.2-1.3L275.4,5l-0.6,0.5l0.6,0.7l-1.9,0l0.8,0.7l-0.9,0.7l1.6,0
	l1.2-0.8L275.8,8l1.1,0.1l0.4,0.8l0,0.4l-0.5,0.8l0.6,0.2l0.4-1.4L276.6,7l1.3-0.2l1.9,6.8l1.6,2.1l1.5,0.9l2.3,3.1l-0.3,1.1
	l-0.5-0.1l-0.9-0.8l-0.3-1.4l-0.8-0.4l0.7,2.2l1,0.2l1.9,2.2l3.3,1l-0.5,1.5l-1.2,0.7l0.1,2.8l0.8-1l0.1,1.1l1.5,0.3l-0.1-0.6
	l-0.8,0.1l0.3-1.2l0.9-0.7l0.2,0.9l0.6-0.8l-1.9-4.4l2.4-0.3l1.6-0.9l0.4-2.6l0.6,0.8l-0.1,1.7l1.5-0.4l-0.3,0.6l1.1,0.7l-2.2,1.5
	l-1.4-0.2l-0.4,0.9l0.6,2.2l1.2,1.5l0.7,0.5l3.2,0.2l0.9-1l-0.5-0.9l1.2-1l0.1-0.8l1,1.3l1.4-0.1l1,1.4l1.8-0.9l0.6,0.3l0.3,2
	l0.6,0.4l0.8,0.5l-0.4,1.1l-1.3,0.6l0.6,1.1l1,0l0-1.7l0.7,0.6l0.4-0.6l-0.2-0.9l-0.6-0.2l0.3-0.4l1.5-0.2l0.7-0.8l0.4,0.7l1,0
	l0.3,0.8l0.9,0.1l0.5-0.6l0.9,0.9l-0.3,0.5l1.1,0.8l-0.5,0.3l0.5,1.7l1.1,1.1l4.2-0.4l0.9,1.9l1.1,0.3l-0.1,0.8h-1.4l-0.8,1.1
	l-1.1-1.2l-1.2-1.3l-1,0.8l0.8,0.1l0.6,1.1L318,38l-1.6,0.9l3.8,0.2l-0.5,0.8l0.9,0.7l-0.1,1.5l0.9,0.5l0,0.9l1.2,0.6l0.4,0.2
	l1.4-0.5l1.5,0.8l-1.1-1.2l-2.5,0.2l-0.6-1l1.4,0l-1.2-1.2l0.1-0.9l2,1.7l0.7-0.2l0.8,0.5l0.2-1.5l1.3-0.8l0.3-0.9l1.2,0.4l0.4-1.9
	l1.2-0.2l0.4-0.6l0.2,1l-0.8,0.1l-0.5,0.6l0.5,0.2l-0.2,0.4l-1,0.6l1.3,1l-1.1,0.1l0,0.7l1.7,2.6l1.5-0.3l-0.2,0.7l-0.9,0l1,0.5
	l0.2,0.7l-0.4,1l-0.6-0.4l-0.1-1.2l-0.6,0.1l-0.3-0.6l-0.4,1.1l0.8,0.2l0.6,2.4l0.6-0.1l-0.4,1.1l1.2-0.3l0.5,0.6l0.6-0.4l-0.2-0.5
	l0.6,0.2l-0.2,1.3l1,0.6l0.1,1.1l0.6-0.2l0.5,1.2l-0.1,0.4l-0.5-0.5l-0.3,0.5l0.7,1.8l1.4,0l1,1.1l0,2.9l-0.9-0.5l-0.4,1.9l0.8,2
	l1.7,0.1l-0.6,0.5l0.5,0.7l-0.1,0.9l-0.5,1.1l1.7,3.2l-1.4,0.3l-1.2-0.5l0.5-0.3l-0.4-0.9l-1.1,0.1l0.3-0.8l-0.6-1.2l-0.4-0.7
	l-1.8,0.4l-1.8-0.9l-1,0.7l-0.4-1.3l-0.9,0.8l0.5,2l-0.5,0.4l0.6,0.4l0.9-1.7l0.4,1.3l2.1,0.6l0.9-0.4l0.8,0.9l1.1,0.1l-1.1,1.5
	l-0.4,3.9l1.6,3.7l1.3,1.1l1.8-0.3l0.7,1.9l0,0.6l0.7,1.3l0,0l-1.3,1l-0.1,1.3l-2,0.8L338,87l-2,0.8l-0.1,0.6l0,0l0,0l0,0l-0.2,0.8
	l-0.5-0.4l-2.1,1.8l0,0l-0.7-0.2L332,90l-1.3,2l-1-0.1l-0.5-1.1l-1.2-0.3l0-1.2l1.4-0.9l0.6,1.1l1.4,0.4l-1.5-1.8l2.1-1.5l0.5-3.3
	l-1,3.2l-2,1.1l0.1-1l-0.8,0.4l-1.2-1.3l1.1-0.3l-1.2-0.2l-0.3,0.5l-0.7-0.6l0-1.2l0.7-1.2l-0.8,0.6l-0.4-0.3l-1,0.1l0,1.8l0.6-0.4
	l1,1.1l-1.1-0.3l-0.2,0.5l1,0.8l1.3-0.5l1.2,2.1l-0.7-0.2l-1,0.7l0,0.5l-0.9,0.2l-1.1-1.5l-0.6,0.2l-1.2-1.1l-1.3-2.1l-2.4,0.1
	l-2.9-2.5l2,3.1l1.4,0.8l1,2.1l2.3,1.5l0.9,2.8l0,1.4l-1.5,1.3l-3.8,0.3l-1.3-2.5l-0.5-3.4l-3.7-6.4l-21.1-28.3l0.1-0.7l0.8,0
	l0.1-1.4l0.8-0.9l-0.4-0.6l0.6-0.1l0.2-2.4l1.8-0.8l1.1,0.7l0.4-1.3l0.6,0.8l1.4-1.7l0-0.8l1,0.1l0.2-0.6l-1.7-0.5l-0.7,2.4l-1-0.5
	l-0.8,1.2l-2.5-0.1l-0.7,0.7l0.3,0.9l-0.8,0.1l-0.5,4l-0.7,0.3l-5.6-6.9l-2.3-3.7l0.4-0.3l-4.2-4.7l0.4-1.4l2.7,0.6l1.3-1.9l0.2-3.5
	l-1.1-3.6l-3.2-5.4l-8.3-11.6l-4.6-4.6l-1.1-0.2L266.3,5L265,4.3l0.9-2.6l5.1,1.6l1.5-0.9l0.2-1l4.4,0.5L278.8,0.3L278.8,0.3z"/>
<path id="NZ-OTA" d="M97,510l0.8-0.3l1,0.5l3.3-0.6l1.4-1.5l2.2-0.8l0.9,0.3l2.9-2.9l1.1-0.4l0.5,0.7l1.7,0.6l-0.2-0.8l1.6-1.2l0,0
	l0.9-0.6l0,0l1.3-1.7l-0.3-0.5l1-3.1l-0.2-1.4l0.8-0.3l0.1-0.9l3.7-1l-0.4-1.1l1.2-0.8l-0.5-1.3l1.6-0.6l-0.2-0.8l2.5-0.3l0-0.6
	l2.6-1.2l0.7,1.6l3.8,0.1l0.8-0.3l0.2-1.3l0.6-0.2l-0.3-0.5l1.1-0.4l0.9,2.4l1.6,0.9l2.8-1.9l0.5-1.4l1.7,0l1.1-1.3l1.9-0.1l0.6-1.7
	l-0.6-1l0.4-1.4l1.6,0.3l2.1-0.5l0.7,0.6l0,0l0.6,4l-1.2,0.2l-0.3,1.6l-0.8,0.3l0.2,0.8l-0.8,0.3l0.1,1.2l-1,0.1l0.2,0.8l-0.9,0.6
	l0.3,0.5l-1.5,0.9l-0.3,1.6l-0.8,0.3l1.6,2.4l-0.1,3.1l-0.5,0.2l0,0l0.4,1.1l0,0l0.3,0.5l-0.7,0.5l0.2,0.8l-0.7,0.5l0.6,1l-0.7,0.5
	l0.2,1.4l-0.7,0.5l1.3,1l0.8-0.3l2,0.5l0.2,0.8l-0.7,1.5l0.9,1.5l-0.8,3l3,0.4l0-1.5l0.7-0.6l1.2,4.5l2.9,1.3l2.1-1.4l2,0.5l2.1,8.1
	l-0.2,1.3l1.3,2.6l1.6,0.9l0.5,1.3l-0.6,0.6l0.9,0.3l0.2,0.8l4.9-0.3l1.3-1.1l0.3,0.5l1.5-0.3l0.8-0.9l1.1,0.2l0,1.6l0.9,0.9
	l1.5-0.9l0.6,0.4l0.8-0.9l2.1-0.8l0.6-1.2l0.4,0.1l0.5-2.4l1.8-2l7.6,3.5l2.7,0.5l0.1,0.6l1.2-0.2l1.6,0.9l1.6-0.1l0.9,0.9l0.8-0.3
	l2.3,1l1.5-0.3l1.2,0.5l0,0l-2.4,4.3l-4.2,4.2l-0.3,0.9l0.4,0.9l-2.3,1.7l-2.3,4.8l0,1.6l-1.4,3l0.2,1.6l1.3,0.1l0.3,0.9l-0.1,1.4
	l-0.5-0.4l-0.8,0.7l-1,2.1l-0.1,0.9l0.9,1l-3,3.3l-1.1,1.9l-0.1,1.6l-1.2,1.4l-0.3-0.6l-0.6,0.3l-0.4,1.2l-0.2,0.5l-0.1,1.4
	l-3.2,2.9l0,1.2l1.1-0.7l1.1,0.5l0.5-0.2l1,1.3l1.1-0.3l0.6,1.3l-3.1,1l0,1.3l-0.9,0l-1.5,2.3l-2.4,1.4l3-0.7l0.8-1.6l1.8-0.3
	l0.8-0.3l-0.1-1l2.1-1l0.3-1.4l0.9,1.7l-0.8,1l-0.1,1.2l-1.4-0.3l-0.5,0.5l0.5,0.5l2.1-0.5l-0.1,1.6l-2.4,0.3l0.1-1l-1-0.7l-0.1,0.8
	l1.1,1.5l-0.9,0.7l-2.2-0.4l-0.6,0.4l0,1l-0.4,0l0-1l-3.5,0.5l-5.9,1.7l-1.7,1.1l-3.8,5.2l-0.1,2.8l-1.1,2.8l-6.6,4.9l-1.1,1.7
	l-1.6,0.7l-1.6,1.7l-3.7,1.7l-0.6,2.9l0.7,0.8l0.1,1.9l-0.9,0.5l-0.1,0.9l-0.9,0.8l-3.8-0.9l-1.6,0.7l0.6,0.6l1.4-1.1l0.8,0.7
	l0.7-0.4l0.8,0.7l-1.1,1.1l0.2,0.6l-1.9,1.1l-1.4,0.1l0,0.9l-0.9,0.4l-0.2,0.8l-1.2-1.1l-0.4,0.4l-0.8-0.6l-1.7,0.3l-0.4,1.3
	l-0.9-0.2l-0.4,1.1l0.4,0.2l-1.6,0.6l-1.1-0.3l-0.8,0.7l0.4,0.7l-0.5,0.4l-2.8-1l-1.1,0.6l-0.6,0.2L131,630l-0.8,0.2l-0.4-0.4l0,0
	l0.3-2.1l0.7,0l0.2-1.4l-1.2-0.8l0.2-0.8l1.3-0.2l1.1-2.1l-2.7-1.5l-0.8-1.3l-0.1-0.6l1.1-0.4l-0.1-1.2l0.6-0.2l0.1-1l-0.7-1
	l-1.9-0.8l0.3-1.1l1.9-1.4l-0.6-0.4l0.8-1l-0.6-1l0.8-2.6L130,606l0.7-1.6l-1.2-0.8l-0.6-2l-1.2-0.2l0.1-1l1.5-0.9l-0.1-1.2l-1-0.5
	l0.8-0.9l-0.2-0.9l-1.9-0.8l-1.3-2l-0.1-1.2l0.8-0.9l0,0l0.3-1.1l0,0l-0.9-0.9l1-2.3l-0.9-0.9l0.4-0.5l-1-0.5l-0.2,0.7l0,0l-1.7,0
	l0,0l0.3-1.7l0.7-0.6l-1-1.5l0.1-3.2l-0.4-0.2l0.4-2.1l0.7-0.6l0.1-1.9l1.1-0.4l0.6-1.2l0,0l0.2-1.3l0,0l1.1-1l1.2-3.6l0.4-3.6
	l0.5-0.8l1.8-0.4l0.5-0.8l-0.7-1.6l-0.6,0.2l-0.6-1l-0.6-2l-2.1-1.1l-0.1-1.2l-0.9-1.5l-2.3,1.8l-4.1,8.1l-0.9,0.7l-0.9-0.3l0.1-1
	l-0.6-0.4l-0.8,0.3l0,0.6l-1.2-0.8l-0.8,0.3l-0.1-4l-1,0.1l-1.1-1.2l-1.3-0.4l0.5-0.8l-0.1-1.8l-0.8-1.9l0.4-0.5l-0.6-0.4l-1.1,0.4
	l-1.3,1.7l-1.8,0.4l-0.9,1.3l-3.2,0.9l-5.4,0.1l-0.8-1.9l0.3-1.7l-0.8-1.3l0.5-0.8l-1.8-1.2l-0.3-0.5l0.4-0.5l-1.1-1.2l0.4-0.5
	l-1-0.5l0.9-1.3l0,0l0.2-0.7l0,0l0.6-0.2l-0.3-0.5l0.6-0.2l0-0.6l1-0.1l0.4-2l-0.4-0.2l0.8-0.9l-0.5-0.8l-2.2,0.8l-1.2-1.4l0,0
	l-1.1-1.2l0,0l-0.7-1.6l-1.5-0.7l0.5-1.4l-1.1-2.4l0.6-0.2v-2.2l1.7,0l-0.2-0.8l0.8-0.9l0,0l0.2-0.7l0,0l0-1.5l0.6-0.2l-0.3-0.5
	l-0.6,0.2l-0.7-1.6l0.4-0.5l-0.3-0.5l1.1-1l-0.6-0.4l0,0l0.5-0.8l0,0l0-0.6l0.6-2.3l0.8-0.3l-0.2-0.8l0.6-0.2l-0.3-2l2.2-2.4L97,510
	L97,510z"/>
<path id="NZ-STL" d="M78.3,631.4l4.2,2.1l1.1,4l1,0.4l0.3,1.1l2,0.8l-0.3,1.3l2.4,0.3l0,0.5l0.2,0.5l0.5,0.9l-0.9,1l-2.9-0.9
	l-0.2,0.7l0.1,0.5l-0.7,0.1l-1.3-1l0.8-0.3l-1.4-1.7l0.3,1.5l-1-0.2l-0.5,1l0.5,1.3l-1.1,0.5l-1.6,2.1l2.1-1.2l0.9-1.4l1-0.3
	l0.6,0.8l-0.2,0.7l1.5-0.2l1.4,0.8l1.2-0.1l-2.2,1.5l2,0.4l0.5-0.2l0.2-1.2l1.2,0.2l-0.3-1.8l1.1-1.1l0.3,0.5l-0.7,0.6l-0.2,2
	l1.5,1.1l-0.5,0.7l0.3,0.6h0.8l-1.1,0.7l0.4,0.9l-0.5,0.5l-1-0.4l-0.3,0.8l0.7,1.2l0.9-0.2L92,655l-0.8,0.1l-0.2-0.8l-0.9-0.4
	l-1.1,0.7l0.4,1.4h-0.7l-0.5,0.5l-1.9-1.1l-0.5,0.2l0,0.9l-0.7,0.3l-1.2-0.6l-2,1.2l-0.5-0.7l-2,2.4l-1.2-0.1l-0.2,0.8l-0.6-0.2
	l-1,0.7l-1.2-0.7l-0.9,0.2l-0.3-0.8l-1.4,0.6l-1-1.8l-0.4,1.1l-0.7-0.2l0.3,1.5l-0.8,0.6l-0.4-0.4l-0.4,0.9l-1-0.1l0.2,0.8L67,663
	l-0.9-0.4l0.3,0.7l2.9-0.4l0-0.7l0.6,0.1l0.3,0.4l-0.8,2l-1.3,0.4l0.2-1.4l-1.4,0.5l0.4,0.2l-0.7,1l-1.3,0.7l-1.9-0.3l0-0.8
	l-0.8,0.7l-0.7-0.2l0.5-3.6l1.2-1.1l0.8,0.3l0.3-0.9l1.6-0.5l0.3-0.6l-0.1-1l-0.4,0.7l-0.2-0.4l1.3-2.3l-0.8-0.1l-0.3-1.3l0.8-0.4
	l1.6-2.4l1.2-0.3l1.6,0.8l0.7-0.3l-0.2-0.7l-0.5,0l-0.2-1.1l0.6-0.6l-0.8-0.3l0.2-1l-0.6-0.1l-0.1-1.9l0.6-0.4l-0.4,0.6l0.3,0.8
	l1.8-0.2l1.6-2.6l0-1.6l-0.8-0.7L74,642l-0.3-1.1l-2-3l0.7-0.5l-0.6-1.8l0.9-1.5l-0.3-0.8l2.7-1.6l1.8,1L78.3,631.4L78.3,631.4z
	 M30,598.3l1,0.4l-0.1,0.6l-1.8,1.5l-0.3-1.6C28.9,599.2,30,598.3,30,598.3z M25.7,594.8l1.1,0.7l-0.6,0.3l0,0.9l-1.1-0.6
	L25.7,594.8z M35.6,578.6l0.2,0.3l-2.9,1.3l-3.6,0.6l-0.1-0.6l1,0l0.5-0.7L35.6,578.6L35.6,578.6z M26.5,578.6l1,0.7l-1.8,0.7l0,0.5
	l-1.5-0.4l0.2-1l1.5,0.1l-0.1-0.5L26.5,578.6L26.5,578.6z M38.1,577.3l1.4,0.2l0.5,0.7l-2.5,0.9l-1.3-0.3l-0.1-0.7l0.7-0.7
	L38.1,577.3L38.1,577.3z M31.9,570.5l1.4,1.6l0.3,4l-0.2,1.5l-1.2,1.2l-0.9,0.3l-0.7-0.6l-2.2,0.7l0.1-0.5l-0.6-0.3l0.5-1l-1.8-0.7
	l0.7-0.2l0.8-0.5l-0.3-0.3l-0.8-0.4l0-0.9l-4.3,4.3l0.1-1.6l1.9-1.9l0.6-1.4l0.3,0.2l0-1.1l0.9-1.1l0.5,0.5l2.1-1.6l0.9,0.5l1.1-0.8
	l0.4,0.6L31.9,570.5L31.9,570.5z M43,545.8l0.3,0.9l-0.8,2l2.1,5.2l-1.1,0.3l-4.3-3.4l1.4-2.8l1.7-2.1L43,545.8L43,545.8z M87.2,498
	l2.2,0.6l3.4-1.6l1.8,0.2l1.1,1.1l1.4,0.1l0.4,1.7l-0.4,0.5l1.3,1l-0.2,0.7l1.7,0.6l-0.2,0.7l-1,0.1l0,0.6l-1.5,0.9l0.9,0.9
	l-0.4,0.5l0,0l-0.2,0.7l0,0l-0.8,2.5l0.3,0.5l0,0l-2,0.1l-2.2,2.4l0.3,2l-0.6,0.2l0.2,0.8l-0.8,0.3l-0.6,2.3l0,0.6l0,0l-0.5,0.8l0,0
	l0.6,0.4l-1.1,1l0.3,0.5l-0.4,0.5l0.7,1.6l0.6-0.2l0.3,0.5l-0.6,0.2l0,1.5l0,0l-0.2,0.7l0,0l-0.8,0.9l0.2,0.8l-1.7,0v2.2l-0.6,0.2
	l1.1,2.4l-0.5,1.4l1.5,0.7l0.7,1.6l0,0l1.1,1.2l0,0l1.2,1.4l2.2-0.8l0.5,0.8l-0.8,0.9l0.4,0.2l-0.4,2l-1,0.1l0,0.6l-0.6,0.2l0.3,0.5
	l-0.6,0.2l0,0l-0.2,0.7l0,0l-0.9,1.3l1,0.5l-0.4,0.5l1.1,1.2l-0.4,0.5l0.3,0.5l1.8,1.2l-0.5,0.8l0.8,1.3l-0.3,1.7l0.8,1.9l5.4-0.1
	l3.2-0.9l0.9-1.3l1.8-0.4l1.3-1.7l1.1-0.4l0.6,0.4l-0.4,0.5l0.8,1.9l0.1,1.8l-0.5,0.8l1.3,0.4l1.1,1.2l1-0.1l0.1,4l0.8-0.3l1.2,0.8
	l0-0.6l0.8-0.3l0.6,0.4l-0.1,1l0.9,0.3l0.9-0.7l4.1-8.1l2.3-1.8l1,1.5l0.1,1.2l2.1,1.1l0.6,2l0.6,1l0.6-0.2l0.7,1.6l-0.5,0.8
	l-1.8,0.4l-0.5,0.8l-0.4,3.6l-1.2,3.6l-1.1,1l0,0l-0.2,1.3l0,0l-0.6,1.2l-1.1,0.4l-0.1,2l-0.7,0.6l-0.4,2.1l0.4,0.2l-0.1,3.2l1,1.5
	l-0.7,0.6l-0.3,1.7l0,0l1.7,0l0,0l0.2-0.7l1,0.5l-0.4,0.5l0.9,0.9l-1,2.3l0.9,0.9l0,0l-0.3,1.1l0,0l-0.8,0.9l0.1,1.2l1.3,2l1.9,0.8
	l0.2,0.9l-0.8,1l1,0.5l0.1,1.2l-1.5,0.9l-0.1,1l1.2,0.2l0.6,2l1.2,0.8l-0.7,1.6l0.5,0.8l-0.8,2.6l0.6,1l-0.8,1l0.6,0.4l-1.9,1.4
	l-0.3,1.1l1.9,0.8l0.7,1l-0.1,1l-0.6,0.2l0.1,1.2l-1.1,0.4l0.1,0.6l0.8,1.3l2.7,1.5l-1.1,2.1l-1.3,0.2l-0.2,0.8l1.2,0.8l-0.2,1.4
	l-0.7,0l-0.3,2.1l0,0l-2.1-0.4l1.3-1.3l-1.6-1.1l-0.6,2.3l-0.3,1.1l-1.5,0.5l-1.6-0.2l-1.1,0.4l-0.5-0.6l-0.8,0.4l-1-0.9l-3.8,0.2
	l-0.9-2l0.4-0.9l-1.1-0.9l-0.4-0.7l-3-0.7l-4.7,1l0.2-1l0.9,0.4l0.7-0.4l-1.7-0.9l-1.8,0.3l1.3,1.5l-2.5,1.2l-3.4,0l-1.9-0.7
	l-0.6,0.5l-0.3-0.2l0.7-0.9l2.4,0.2l0.4-0.3l2.4,0.9l0.6-0.4l-0.4-0.9l-2.6-0.8l-1.5,0l-1.3,0.8l-0.6-1.1l0.4-0.4l-0.8-0.7l-0.7,0.9
	l-0.3-0.4l-0.9,0.4l0.6,2l0.6,0.2l1.1,1.3l-1.2,0.8l-0.8-1.8l-1.4-0.5l-0.3-1.6l-1.5-0.2l0.3-0.7l-0.5-1.3l2.7-0.5H96l2.1-1.3l0-0.6
	l-1.1-0.2l0.1-2.3l-0.5-0.8l-0.4,0.2l0.2,1.6l-1.9,0.5l0.6,0.5l0.4,1.3l-1.2,0.3l-2.8-5.7l-2.9-3l-3-0.2l-1.2,1.1l0.7,1.3l-4.9-1.5
	l-1.3,0.7l0.2,1.3l-2.2-1.4l-1.7,1.3l-1.1-1.3l-0.8-0.1l-0.2-1.8l-1.6-0.3l0-1l1.6-0.8l-0.6-2l-3.9-3.8l-4.4-2.2l-3.9-0.2l-0.4,1.5
	l-1.6,0.9l0.4,2l-0.8,1.3l-2.7-0.4l-2.3,1l-3.4-0.7l-0.9,0.4l-3.4-1.7l-2.5,0.1l-3.2-1.1l-2.4,0.2l-1.2,1.1l-0.6-1l-1.4,0l-0.4-0.5
	l-1.9,0.3l-1.7-2.8l-0.7-0.2l3.1-2.4l1,0l-0.2-1.2l0.7-1.1l0.5-0.4l1.2-0.2l0.5-0.7l-0.3-2.5l3.2-1.2l2.5-2.9l-1.9,1.1l-0.7,1.1
	l-3,0.5l0.5,0.5l-1.2,0.5l-0.7,1.2l1.1,1.9l-1.4,0.3l-0.6,1.2l-0.7-1.2l0.9-1.3l-0.1-0.6l-1.2,1.7l-1.6,1.8l0-0.7l-1.2-0.6l-1.1,1.1
	l0.1,0.5l-0.9,0.2l-0.1-1.1l0.7-0.5l0.4-1.9l1.1-2.5l2.7-1l3.1,0l-0.7-0.8l0.6-0.2l-0.2-0.3l-2.3,0.7l-2.3-0.5l1.6-4l0.7-0.5
	l-0.8,0.1l-3.5,5.6l-1.6,0.2l-2.2,1.5l-1,0.6L23,593l0.1-3.2l-1-2.1l0.5-2.4l-0.4-1.2l0.8-0.5l0-0.8l0.9,0l0.5-0.7l1.5-0.5l2.8,0
	l1-0.2l6.3-1.7l2.1,0.1l1.7-1.3l2.7-0.3l1.2-0.9l-1.2,0.2l0.6-1.3l-0.4-0.1l-0.9,1.7l-4.3-1.2l-3.6,1.3l0.9-3.3l7.2-2l1.2-1.4
	l-1.6,1.2l-2.9,0.2l-4.7,2l-0.2-3.9l1.5-0.1l0.7-0.9l3.3-1.4l1.6,0.7l1.7-0.7l1,0.7l0.5-0.4l-1.4-0.6l-1.8,0.6l-1.2-0.3l0-0.7
	l2.4-0.7l1.4-1l-0.5-0.5l-3.8,1.6l-0.1,0.7l-3.8,0.9l-1.4,1.1l-1.8,0.3l-0.9-0.5l0.8-4.2l1,0.3l0.3-0.4l-0.6-0.7l0.1-0.8l1.6-3.9
	l2-0.3l3.4,2.3l-0.7-1l-0.3-1.9l-0.4,1.7l-2-1.8l-1.3-0.2l-0.2-1l1-2l1.5-1.4l0.5-1.4l4.1,2.4l-2.1,1.4l2.8-1.2l2.3,1.7l-0.4,0.8
	l0.7-0.7l1.3,0.5l1.5,2.8l0.3,1.9l-1.7,1.6l-0.5,1.6l1.2-1.9l1.8-1.5l1.1,1.2l-3.1-5.8l-1.6-0.7l-1.4-1.7l1.1-1.3l3.4-0.6l0.9,0.3
	l-0.1-0.7l0.1-0.5l-0.8-0.2l-0.6,0.8l-3.2,0.5l-0.6-0.3l-0.2-1.8l-1.2-1.6l0.3-2.8l0.4-0.2l-0.8-1.5l1.1-0.8l0.5-1.1l1.2,0.7
	l2.3,3.8l1.7-0.4l-0.5-0.4l-1.1,0.4l-1.3-2.9l-0.8-1l-0.9-0.2l2-2.9l2.1,2.8l0,1.6l1.3,1.2l0-0.5l-0.9-0.5l-0.1-1.7l3,0.3l-0.8-0.7
	l-2.4-0.1l-1.2-1.4l-0.6-1.8l0-0.7l1.7-1.2l0.2,0.8l6.4,1.8l-0.1-0.5l-2.5-0.8l-2.4-1.2l-1.1,0.2l-0.5-1.4l1.6-1.6l0.5-0.4l0.9-1.2
	l0.4-0.8l0.9-0.4l1-2l1.2-0.3l1-1l0.6,0.1l0.2,1.6l1.2,1.9l-0.3,1.8l1,0.3l0.4,0.6l-0.8,2l1.2-1.3l1.2,0.6l-2.3-2.7l0.3-0.5l0.5,0.2
	l-1.8-4.5l0-1.3l1-0.8l0.7-0.4l1.9-1.5l1.6,0.2l1.9,1.3l-1.9,2.5l0.2,0.9l1.4,1l-1.2-1.5l1.9-2.8l-2.1-2.7l1.4-1.3l2.4,0.6l-1.2-1.2
	l0.2-1.8l1.9-1.4l1.9,1.4l-1.2-2.4l1.1-0.3l1.8-1.7l1.2,0l0.5-1.3l1.3-0.5l0.9,1.7l0.8,0.1l0.1-5.1l-0.5-0.9l1.1-0.6l1.2-2.8
	l2.2-2.4l1-0.5l0.7,0.3l1-1.2l0.7,0.4l1.4,4.8l0.1,2.7l0.8,0.4l-0.8-5.7l-2.5-4.6l3.8,0.1l1-2.1L87.2,498L87.2,498z"/>
<path id="NZ-TAS" d="M283.9,339.4l2.1,0.3l-3.2-1.8l-0.4,0.6L283.9,339.4L283.9,339.4z M301.5,327.6l-1.8,2.2l-1.3,0.5l-0.3,1.5
	l-0.9,1.1l-2,1l-1.1-1l-3.1,2.4l0,1.1l0,0l0.8,1.3l-0.8,1.1l-0.7-0.5l-0.4,0.7l0.6,2l-3,1.7l-1.1-1l0,0l-1.5-0.7l-0.4-1.4l-2.6-0.2
	l-0.4-0.5l-0.2-0.7l1.1,0l0.3-0.5l-0.9-1.2l0-0.9l-3.1-3.3l0.8-0.5l0.4-2l-1.3-1.8l0.9-0.9l0-0.5l-0.1-1l-1-0.1l0.4-1.2l1.1-0.1
	l0.3-0.8l1-0.6l-0.1-0.8l-0.3,0.5l-0.6-0.5l0.8-0.5l0.1-1.6l-0.7-0.9l0.7-0.5l-0.3-1.1l-0.6-0.2l-1.5,1l-0.1-0.5l0.8-0.3l-1-3.7
	l-1.8,0.4l-0.2,1.8l-1-1.2l-0.3,1l-2.2,1.3l-4.8-3.6l-1.7-2.9l-0.1-1.9l-1.3-1.1l0.9-0.4l0.5-2.7l-0.5-0.5l3-3.6l5.2,0.3l5,1.6
	l-0.8-0.7l-2.6-1l-5.1-0.8l-1.3,0.4l-3-0.7l-2,0.7l-3.3,3l-0.1,0.7l1,0l0.1-0.8l1.5,0.1l0.4-0.8l0.3,1.6l-1.9,0.2l-0.5,0.4l0.5,0.8
	l-0.9-0.3l-1.8,1.2l-0.1-0.5l1.4-1.3l-0.5-0.5l-3.4,2.4l-2.9,3.5l-4.3,3.4l-1.6,0.6l0,0l1.1,1.8l-0.5,3.3l1.2-0.7l0.2,0.8l1,0.5
	l-0.5,0.8l1,1.6l0.5-0.2l0.4,0.7l1.9-0.1l0.4,0.7l-1.4,1.9l-0.9,0.1l-0.7,1.4l0,0l1,1l0,0l-0.6,1.1l0.3,0.5l0.9-0.1l1.2-2.2l1.1,0.7
	l1.2-0.7l2,0.1l-0.3,1.5l1.3,1l0.2,1.4l1.1,0.2l0.3,1l2.3,2l0.7,2l1.7-0.4l0.7,0.6l-1.4,1.9l-2.3,0.6l0,0l-1.3,0.5l0,0l1.2,1.8
	l-0.6,1.6l0.3,0.5l-0.6,0.5l0.4,1.6l-3,2l-1.9-0.4l0-0.5l-1.7,0.9l0.6,0.9l-0.5,2.2l-1.1,0.4l0,0.5l-0.9,0.1l-1.1,1.3l0.3,1.9
	l-0.8,0.3l0.5,1.2l-0.4,0.4l0,0l-0.1,0.9l0,0l-1.3,0.5l-0.1,0.9l-1-0.5l-1.2,0.7l0.8,1.1l-0.2,2.1l-1.3-1l-0.2,0.6l-2.1-0.1
	l-1.7,1.5l0.5,0.7l-1.2,1.6l0.4,1l0.5-0.2l-0.1,4.4l0,0l-0.8,0.3l0,0l-0.1,0.9l-0.9,0.1l0.5,1.2l-1.2,1.6l0.9,0.8l0.4,2.1l1.7,0.5
	l-0.8,1.8l1.4,2.6l2.6-0.1l0.8,1.7l1-0.1l0.1,1.1l3.3-0.1l0.7,3.5l-0.8,0.9l1.1,1.6l-0.1,0.9l0.5-0.2l2.3,1.5l0.5-0.2l-0.3-0.5
	l0.5-0.8l1.1-0.4l0,0l1.8-0.4l1.5-2.3l1.9-0.7l0.5-0.8l-0.3-1.9l1.3-1.1l-0.4-1.6l1.9-0.7l0.2,0.8l1.2-0.2l0,0l0.5-0.2l-0.4-1
	l0.5-2.2l1-0.1l1-1l-0.4-1l1.2-0.7l0.3-1.5l1.3-0.5l0.1-0.9l0.5-0.2l0.2-0.7l-1-1l0.3-1l0.8-0.3l-0.1-1.1l2.9-3.1l-0.8-1.7l0.4-0.4
	l0.7,0.6l2.1-1.4l2.2-3.1l0-2l2.6-1l0.1-0.9l0.7,0l0.7-1.4l0,0l0-0.6l0,0l0.3-1.5l0.6,0.4l1.6-0.6l1,0.5l2-0.5l-0.5-1.2l-1.6-1.4
	l1-1.5l0.8-0.3l-0.4-1.6l2.1-0.8l0.8-1.8l2.3-1.5l-0.1-1.7l2.1-2.3l0.4-1.3l1.2-0.2l0.3-1l2-0.5l0.5-2.2l-0.4-1l0.9-3.5L301.5,327.6
	L301.5,327.6z"/>
<path id="NZ-TKI" d="M341.2,208.8l0.1,0.1l0,0l0.4,0.9l0.9-0.1l0.4,0.7l2.9,0l1.1,0.7l1.8-0.7l1,1.5l1.4,0.6l0,0l-1.8,0.7l-0.3,1.5
	l-0.9,0.1l0.7,1.1l-0.4,0.4l0.4,1.5l1,1.5l1.3-1l0,0l0.8,0.8l0,0l-0.5,1.3l0.6,0.9l-0.5,0.7l0.5,0.3l-0.5,0.7l0.3,0.4l1.2-0.2
	l0.5,1.2l0.2-0.6l0.9-0.1l0.9,2.4l0,0l-0.5,0.2l0,0l-0.1,0.9l3.3,0.1l-0.2,0.6l1.3,1.4l-2.1-0.3l-0.7,0.8l0.3,0.4l-0.7,0l0.3,0.4
	l-0.9,0.1l0.6,0.9l-1.7,0.4l0.5,0.3l-0.8,0.3l0.5,0.3l-1.6,2l0.3,0.4l-0.8-0.2l-0.5,0.7l-1-0.4l0,1.4l-1.8,2.6l0.3,1l1.1,0.1
	l1.5,1.3l0,0l-0.3,1l0,0l0,0.5l-0.7,0l1,1.5l-0.2,0.6l1.9,2.3l0.9-0.1l0.4,2.1l1.1,1.2l-1.1,2.7l0.5,2.3l-0.5,0.2l1,1l-2.6,1
	l0.3,0.4l-0.5,0.7l0.6,0.9l-0.6,0.5l0.3,0.4l-1.7,0.4l0,0.5l-1.4,0.8l-0.4,1l-1.5,0.2l-1.7,2.4l0.7,0.4l0,0l-2.3,0.3l-4.2-2.1
	l-2.1-0.5l-1.8-1.9l-1.9-0.8l-1.9-1.6l-3.1-4.2l-4.7-2.8l-5.5-0.8l-1.4-0.9l-2.1-0.3l-3-1.8l-1.8-2.7l-2.9-2.7l-1.6-6.6l1.6-4.4
	l4.7-3.6l1.4-0.2l2.2-1.5l1-1.5l2.4-0.2l4.3-3.1l4.4-0.2l2,0.5l2.9-1.4l2.3-3.4l2.4-2.1L341.2,208.8L341.2,208.8z"/>
<path id="NZ-WKO" d="M370.7,99.1l0.8,0.4l0.9-0.3l0.4,2.1l0.8-0.5l0.5,1.2l0.7-1l0.6,0.2l1.8,1.6l-0.6,0.7l0.3,1.4l-0.5,0.4l0.9,0.6
	l0.8-0.4l0.9,1.1l-0.3,1.4l0.4,0.8l-1.2,0l0.2,1.2l1-0.5l0.9,0.3l0.1,1.2l0.8,0.5l-0.7,1.8l2.1-0.6l-0.8-0.8l2.4,0.1l3-1.7l0.6,1.3
	l0.9,0l0.2,1.1l-1.4,0.1l-1.4,0.8l-0.3,1.6l-1.9,0.8l0.3,1.4l-1.2,0.3l-0.1,1.3l0.7,0.7l1.2-2.5l0.6,0.2l1.1-0.8l2.2,1.6l-0.3,1.3
	l1.7,2.6l-0.7,1.5l1.2,1.8l-0.6-0.2l-1,2.1l0.2,0.6l1.1-2l0.9,1l0.2,1.6l-0.1,2.4l-0.4,1.6l0.5,2.4l-0.4,0.4l-0.8-1.8l-0.1,1.2
	l1,1.2l0.6,2.9l1.7,3.3l-0.2,1.4l0,0l-1,0.4l0.5,0.3l-0.3,0.9l-0.6,0l0.5,1.2l-0.7,0.8l-0.5-0.3l-0.9,1.1l0.4,0.6l0.5-0.2l0.6,1.4
	l-1.6,0l-1-1.5l-1,1.4l1,2l-1,0.9l1.3,2.5l-0.2,1.7l2.5,3.8l0.9,2.8l-0.8,2.7l1.3,0.6l-0.5,0.2l0.7,1.1l-0.2,0.6l0.9,0.4l-0.2,0.6
	l0.7,0.5l-1.4,0.8l0.5,1.7l0.8,0.2l0.1,1.1l1.7,0.1l1.4,1.1l0.2,1.3l1.9,1.4l2.6,0.1l1.9,1.4l-0.1,0.8l0.5-0.2l0.6,0.9l-0.5,0.7
	l1.1,3.6l-0.5,0.2l1.1,3.1l0.5-0.2l0.4,0.6l0.1,1.1l1.5,0.8l1.2-0.2l1.4,1.6l2.2,0.5l1.6,1.8l-1.3,5.6l0.3,0.9l-3.5-1.3l-1.2,2.9
	l-2.3-1l0.9-2l-0.7-1.1l-1.2,0.2l0,0.5l-1.9,1l-2,0l-0.1-1.1l-0.8-0.2l-0.6-1.9l-2.3,2.8l-1.1-0.1l0.2,1.3l-0.6,0.5l0.3,0.9l2.1-0.3
	l0.5,1.2l0.8-0.3l3.2,1.4l-0.5,0.2l0,1.4l-1.3,2.4l3.3,3.9l-1.6,1.4l-4-1.1l-0.3,2l-0.5,0.2l0,0l0.5,1.2l0,0l1,1l-0.7,0l0.8,1.6l0,0
	l2,2.5l0,0l1.5,0.2l0.3-0.9l1.1,0.1l0.2,2.6l0.9,1.3l-0.8,1.1l0.7,1.1l0,1.4l-0.9,0.1l-1,0.9l0,0l0.3,0.4l-2.2,1.1l-0.1,0.9l0,0
	l-1.4-0.6l-2.4,1.2l-4.4-0.2l-0.3,1.5L391,234l0.5,0.3l-0.2,0.6l-1.5,1.1l0.6,0.9l-1.2,0.2l-1.2,1.6l-2.2-0.8l-0.2,0.6l-1.6-0.5
	l-1.4,0.3l-4.3-1l2.9-5.8l0.8-2.8l-1.4-1.1l0.5-1.3l-0.5-0.3l1.3-0.5l0-1.4l1.5-1.7l-2.1-0.3l-2.6,0.5l-0.4-1.5l1.2-2.1l-1.6-2.4
	l1.5-2.2l-1-1.5l-0.5,0.2l-0.9-1.8l2-3.2l0.5-1.2l-0.3-1l2-1.9l0.4-2.3l-1,0.9l-2.7,0.8l-1.5-1.8l-2.1,0.3l-1.1-0.7l-1.4,0.3
	l-0.2,0.6l-1.5,0.6l-0.5-1.7l-0.9,1.1l0.2,1.3l-1-0.4l-0.7,1.4l-0.9,0.1l-0.2,0.6l-1.3,0.5l-1.1-0.7l-1.4,0.3l-1-0.4l-0.7,0.8
	l-1-0.4l-1.1,1.2l-1.5,0.6l-2-0.1l0.5,1.7l-0.4-0.1l-0.8,1.7l0.3,1l-1.6,0.1l-1.5,1.1l0,0l-1.3-0.6l-1-1.5l-1.8,0.7l-1.1-0.7l-2.9,0
	l-0.4-0.7l-0.9,0.1l-0.4-0.9l0,0l0.5-10l0.6-2.4l-0.4-3.5l0.8-0.1l0.2-1l2.1-2.8l-0.1-5.2l-1.4-4.4l0.3-0.3l0.3,0.6l1.6,0.3l1.6-1.8
	l-0.5,1.2l0.1,0.4l0.5-0.4v1.1l0.7,0.1l0.4-0.8l0.4,1.4l1.2-0.6l0.3-0.3l-1.4,0l0.4-1l3.4-1.6l-1-0.5l-0.1-0.8l-1.2,0.2l-0.4,0.5
	l-0.3-1l-1.1,1.8l-1.1,0.1l0.6-3.1l1.1-0.7l-0.1,0.6l1,0.3l-0.1-0.7l1.7-2.5l-0.8-0.6l-1.7,0.3l-0.3,1.4l0.6,0.5l-1.5,0.7l-1.5-7.1
	l0.8-1.6l1.9-0.4l0.8-0.9l1.3-0.4l1.4,0.7l0.5-0.1l-0.3-0.5l0.6,0l0.5,0.6l0.8-1l-0.7-0.4l-1.5,0.3l0.6-0.8l1.5,0.1l-0.6-1.2
	l-1.7,0.5l-0.2,1.6l-1.4-0.8l0.2,0.7l-1.2,0.5l-1.7-8l-1-1.7l0-1.9l-2.6-6.2l0-3.1l0.5,0.8l1-0.2l1.7-2.6l0.9-0.5l0,0l1.6-1l0.1-1.4
	l2.6,0.6l0.1-1.4l0.6-0.5l-0.5-0.9l2.3,0.2l0.7-1.3l-1-2l-0.9-1l-0.4,0.4l-0.3-0.9l0.5-0.7l0.8,0.8l1.3,0.1l0.8-2.7l1.7-2.2l0.5,0.9
	l2.7,0.3l0.1-1.9l0.8-0.3l1.3,1.1l2.6-0.7l0.5-1.1l0,0l0.8,2.5l-0.1,4l1.4,3l2.6,0.7l4.6-2.3l0.6,0.2l-0.9-2.9l0.3-2.4l-1-4.2
	l-2.8-3.6l-0.9-2.3l1.1-0.4l-0.3-0.8l-0.2-0.5l0.7-0.6l2.1-0.1l0.3-0.8l-1-1.7l-0.3-0.7l-1.6-1l0.7-2.6l-0.4-1.8l0-0.8l-1.2-1.5
	l-2.4-1.3l-0.7-1.5l0-2l0.6,0.2l0.1-0.6L370.7,99.1L370.7,99.1z"/>
<path id="NZ-WGN" d="M354.2,315.8l0.3,0.4l-0.8,1.3l-1.8,1.8l-0.7-0.1l1.9-3.3H354.2z M361.5,309.8l1.3,0.1l0,0.5l1.4,0.6l0,0.5
	l-0.9,0.1l0.2,0.8l1.2,0.4l0.6-0.5l1.1,0.7l1.7-0.9l1.5,0.2l0.2-1.2l0.8-0.3l0.9,0.8l1.8,0.1l1.3-2.5l5.8,3l1.3-0.5l0.3-1l0.8,0.2
	l0-0.5l0,0l0.3-1l0,0l1.9-0.2l0.7,0.5l0.4-0.4l0.7,0.5l-0.4,0.4l0.6,0.3l-1,2.4l1.7,0.5l0.7-0.9l0.6,0.3l0.4-0.4l0.9,0.8l1.5-1.2
	l0.9,0.8l0.4-1.3l1.2-0.2l-0.2-0.8l1.1,0.1l0.6-1.1l1.1,0.7l1.6-0.1l-0.3-0.4l0.4,0.1l0.1-1.7l1.7,0.5l0.8-0.3l0.8,1.1l2.3,0.5
	l0.6,1.8l1,0.5l-0.5,0.8l0.2,0.8l0,0l-0.3,2.2l-1.4,2.9l0.2,1.2l-3.3,2.9l-0.7,2.3l-0.7,0.6l-0.2,2.1l-1.2,1.9l0,1.5l-2.8,2.9
	l-1.3,3.4l-3.2,1.6l-0.7,2.1l-2,2.3l-5.3,2.7l-3.5,3.8l-3,1.2l-0.4,0.9l-2.6,2.3l-2.5,0l-1.8,1.9l-1.2,0.2l-1.4-0.6l-0.8,0.2
	l-0.7-3.5l-0.9-0.7l1.1-3.8l-0.2-1.1l-2.8-1.8l0-1.6l-1.5,0.8l-2.5-0.5l-2.1,1l-2.8,2.4l-0.6-1.1l-1.3-0.4l0.3-1.2l-1.1-1.5l2.5-5.2
	l-1-1.4l-1.2-0.3l-2.7,2.2l-0.3,1l1,0l-0.1,1.5l0.9-1.6l0.5,0.5l-0.3,1l0.4,0.9l-0.7,0.7l-0.8-0.9l-1.3,1.2l-0.9-0.2l-1.1,0.9
	l-0.8-0.9l-1.4-0.2l-1.8-2.9l1.2-2.5l2.7-0.9l1-2.5l0.8-0.3l1.7-2.9l1.2-0.2l0.6-1l0.6,0.6l-0.9,0.9l0.1,0.7l0.7-0.8l0.3-1.5
	l-1.1-1.1l0.3-0.8l3.6-2.5l1.1-2.3l0.6-3.8l3-2.9L361.5,309.8L361.5,309.8z"/>
<path id="NZ-WTC" d="M247.8,313.3l1.1,1.8l-0.5,3.3l1.2-0.7l0.2,0.8l1,0.5l-0.5,0.8l1,1.6l0.5-0.2l0.4,0.7l1.9-0.1l0.4,0.7l-1.4,1.9
	l-0.9,0.1l-0.7,1.4l0,0l1,1l0,0l-0.6,1.1l0.3,0.5l0.9-0.1l1.2-2.2l1.1,0.7l1.2-0.7l2,0.1l-0.3,1.5l1.3,1l0.2,1.4l1.1,0.2l0.3,1
	l2.3,2l0.7,2l1.7-0.4l0.7,0.6l-1.4,1.9l-2.3,0.6l0,0l-1.3,0.5l0,0l1.2,1.8l-0.6,1.6l0.3,0.5l-0.6,0.5l0.4,1.6l-3,2l-1.9-0.4l0-0.5
	l-1.7,0.9l0.6,0.9l-0.5,2.2l-1.1,0.4l0,0.5l-0.9,0.1l-1.1,1.3l0.3,1.9l-0.8,0.3l0.5,1.2l-0.4,0.4l0,0l-0.1,0.9l0,0L251,357l-0.1,0.9
	l-1-0.5l-1.2,0.7l0.8,1.1l-0.2,2.1l-1.3-1l-0.2,0.6l-2.1-0.1l-1.7,1.5l0.5,0.7l-1.2,1.6l0.4,1l0.5-0.2l-0.1,4.4l0,0l-0.8,0.3l0,0
	l-0.1,0.9l-0.9,0.1l0.5,1.2l-1.2,1.6l0.9,0.8l0.4,2.1l1.7,0.5l-0.8,1.8l1.4,2.6l2.6-0.1l0.8,1.7l1-0.1l0.1,1.1l3.3-0.1l0.7,3.5
	l-0.8,0.9l1.1,1.6l-0.1,0.9l0.5-0.2l2.3,1.5l0.5-0.2l-0.3-0.5l0.5-0.8l1.1-0.4l0,0l0.3,0.5l-0.9,1.2l0.1,1.1l-0.7,0l-0.1,2.4
	l-1.2,0.7l-0.6-0.4l-2.1,0.8l-2.4,3l-2,0.5l-0.2,1.2l-1.9,1.6l0,1.5l-2.2,1.2l-0.8,1.8l0.3,0.5l-0.5,0.2l0.3,0.5l-2.7,1l-0.6-0.4
	l0,0l-1.8,0.4l0,0l0.2,0.8l-2.1,0.8l-0.3,1.6l-1.3,1.1l0.1,1.7l-1.2,0.2l-0.3,1l-1.2,0.8l-2.2,0.3l0.1,2.6l-1.1,0.4l-0.2,0.7
	l0.7,0.6l-1.4,1.4l-0.8,0.3l-1.1-1.1l-2,1.1l-1-0.5l-2.8,0.8l-0.9-0.8l-1,1l-0.9-0.3l-0.5,0.8l0.3,0.5l-1.3,1.1l-0.5,0.2l0.2-0.7
	l-1.3-0.4l-0.9,0.6l-1.4-0.1l-0.2,0.7l0.4,0.1l-3,2l0,0l0.4,1.6l0,0l-0.9,0.6l0.1,1.1l-1.2,0.3l-0.6-0.4l-1.6,1.2l-0.3-0.5L205,434
	l0.2,0.8l-0.6,0.5l-1-0.5l0.3,0.5l-0.8,0.3l0.2,0.8l-1.2,0.8l0.6,0.9l-1.4,0.5l-0.1,0.9l-1.3,1.7l-1.5,0.3l0.1-0.9l-0.9-0.3l-1.4,2
	l-0.8,0.3l0,1.5l-1.8,0.4l-0.1,0.9l-0.8,0.3l-0.3-0.5l-1.6,1.2l-2.1-0.1l0.5,1.3l-1.8,0.4l-1,1l0.6,1l-1.7,1.5l-0.1,0.9l-1.2,0.2
	l-0.2-0.8l-1.2,0.2l-0.5-0.7l-0.5,0.8l-1.9,0.7l-0.4,1.4l-1.2,0.2l-1,1.6l-1.9,0.7l-0.9-1.4l-2.2,1.7l-1.6,0l-1.7,2.5l0,0l-1.2,0.2
	l0,0l-0.4,1.4l-2,0.5l0.5,2.2l-0.4,1.4l-2.2,1.2l0,2.1l-1,1l-1.2,0.2l0.5,0.7l-0.6,0.5l0.1,1.2l-1.1-0.2l-0.2,0.7l-1.6,0.6l0.1,1.2
	l-1.4-0.1l-0.8,1.8l-2.6,1.6l-0.4,2l-0.7,0l-0.7,1.5l-0.8,0.3l0,0l-0.7-0.6l-2.1,0.5l-1.6-0.3l-0.4,1.4l0.6,1l-0.6,1.7l-1.9,0.1
	l-1.1,1.3l-1.7,0l-0.5,1.4l-2.8,1.9l-1.6-0.9l-0.9-2.4l-1.1,0.4l0.3,0.5l-0.6,0.2l-0.2,1.3l-0.8,0.3l-3.8-0.1l-0.7-1.6l-2.6,1.2
	l0,0.6l-2.5,0.3l0.2,0.8l-1.6,0.6l0.5,1.3l-1.2,0.8l0.4,1.1l-3.7,1l-0.1,0.9l-0.8,0.3l0.2,1.4l-1,3.1l0.3,0.5l-1.3,1.7l0,0l-0.9,0.6
	l0,0l-1.6,1.2l0.2,0.9l-1.7-0.6l-0.5-0.7l-1.1,0.4l-2.9,2.9l-0.9-0.3l-2.2,0.8l-1.4,1.5l-3.3,0.6l-1-0.5l-0.8,0.3l0,0l-0.3-0.5
	l0.8-2.5l0,0l0.2-0.7l0,0l0.4-0.5l-0.9-0.9l1.5-0.9l0-0.6l1-0.1l0.2-0.7l-1.7-0.6l0.2-0.7l-1.3-1l0.4-0.5l-0.4-1.7l-1.4-0.1
	l-1.1-1.1l-1.8-0.2l-3.4,1.6l-2.2-0.6l0,0l-1.8-1l2.1-0.8l1.9-2.2l2.8-2.3l1.1-0.3l0.7-2.1l2.1-1.6l0.1-1.9l1.5-1.3l-0.1-0.9
	l5.8-0.3l0.7-0.6l0.7,0.1l1.2-1.4l1.8-0.6l-0.3,1.1l1.1,1l2.3,0l3.2-1.1l2-1.1l3-3.4l2.8-1.3l4-3.4l2.4-2.9l4.5-3.1l3-1.2l1.1-1.6
	l2.1-0.9l1.5-0.1l1.4,0.2l2-2.2l0.4,0.8l0.9,0l2.4-2.5l1.5-0.3l4.1-6.8l1.9-1.4l3-0.3l2.4-1.6l2.7-4l1.2-0.5l3.6-3.4l3.3-5.5l5,0.1
	l-0.1-1.1l-1,0l1.8-2.5l3.3-1.5l1.2,0.2l1.9-0.7l6-4.1l5.6-5.5l3-5.2l4.3-4.3l3.1-4.9l2.7-6.8l0.3-2l1-0.5l2.4-5.4l1.1-8.2l1.5-4.1
	l0.9-0.8l0.9-5.3l1.5-1.5l0.4-1.5l0.3-2.1l-0.5-0.7l-0.1-2.8l0.5-0.4l3.1,0.3l1.6-1.2l3.4,0.6l1.7-0.9l6.2-5.9l4.2-8.4l3.1-3.1
	l1.6-11.3l-0.3-3.1l0.5-3.8l-0.5-6.8l1.2-1.2l0.1-1.3L247.8,313.3L247.8,313.3z"/>
</svg>
